# xmcd
#
# Track frame offsets:
#	150
#	19342
#	37442
#	52362
#	67675
#	86300
#	103097
#	119432
#	135317
#	151917
#
# Disc length: 2277 seconds
#
# Revision: 0
# Processed by: cddbd v1.4PL0 Copyright (c) Steve Scherf et al.
# Submitted via: audiograbber 1.80.04
#
DISCID=8508e30a
DTITLE=Riverland - Riverland
DYEAR=1900
DGENRE=Pop
TTITLE0=We Damned The Salmon
TTITLE1=Let You Go
TTITLE2=Me And My Guitar
TTITLE3=Next  To Me
TTITLE4=In My Dreams
TTITLE5=As I Am
TTITLE6=Come Over Here And Love Me
TTITLE7=Stay
TTITLE8=Animal Thing
TTITLE9=Without You
EXTD=
EXTT0=
EXTT1=
EXTT2=
EXTT3=
EXTT4=
EXTT5=
EXTT6=
EXTT7=
EXTT8=
EXTT9=
PLAYORDER=
